# AST/ASF file generated using VICON BodyLanguage
# -----------------------------------------------
:version 1.10
:name VICON
:units
  mass 1.0
  length 0.45
  angle deg
:documentation
   .ast/.asf automatically generated from VICON data using
   VICON BodyBuilder and BodyLanguage model FoxedUp or BRILLIANT.MOD
:root
   order TX TY TZ RX RY RZ
   axis XYZ
   position 0 0 0  
   orientation 0 0 0 
:bonedata
  begin
     id 1 
     name lhipjoint
     direction 0.692814 -0.645514 0.321437 
     length 2.38754 
     axis 0 0 0  XYZ
  end
  begin
     id 2 
     name lfemur
     direction 0.34202 -0.939693 0  
     length 6.41921  
     axis 0 0 20  XYZ
    dof rx ry rz
    limits (-160.0 20.0)
           (-70.0 70.0)
           (-60.0 70.0)
  end
  begin
     id 3 
     name ltibia
     direction 0.34202 -0.939693 0   
     length 6.98247   
     axis 0 0 20   XYZ
    dof rx
    limits (-10.0 170.0)
  end
  begin
     id 4 
     name lfoot
     direction 0.0947186 -0.260237 0.960888   
     length 1.83034   
     axis -90 7.62852e-016 20   XYZ
    dof rx rz
    limits (-45.0 90.0)
           (-70.0 20.0)
  end
  begin
     id 5 
     name ltoes
     direction 1.53538e-011 -4.21952e-011 1   
     length 0.920499   
     axis -90 7.62852e-016 20   XYZ
    dof rx
    limits (-90.0 20.0)
  end
  begin
     id 6 
     name rhipjoint
     direction -0.631686 -0.693949 0.345555   
     length 2.2209  
     axis 0 0 0  XYZ 
  end
  begin
     id 7 
     name rfemur
     direction -0.34202 -0.939693 0   
     length 6.49542   
     axis 0 0 -20   XYZ
    dof rx ry rz
    limits (-160.0 20.0)
           (-70.0 70.0)
           (-70.0 60.0)
  end
  begin
     id 8 
     name rtibia
     direction -0.34202 -0.939693 0   
     length 7.21712   
     axis 0 0 -20   XYZ
    dof rx
    limits (-10.0 170.0)
 end
 begin
     id 9 
     name rfoot
     direction -0.0825378 -0.226771 0.970444   
     length 1.89724  
     axis -90 -7.62852e-016 -20   XYZ
    dof rx rz
    limits (-45.0 90.0)
           (-20.0 70.0)
  end
  begin
     id 10 
     name rtoes
     direction -1.53515e-011 -4.22016e-011 1   
     length 0.955868   
     axis -90 -7.62852e-016 -20   XYZ
    dof rx
    limits (-90.0 20.0)
  end
  begin
     id 11 
     name lowerback
     direction -0.0104711 0.984802 -0.173368   
     length 1.84931   
     axis 0 0 0   XYZ
    dof rx ry rz
    limits (-20.0 45.0)
           (-30.0 30.0)
           (-30.0 30.0)
  end
  begin
     id 12 
     name upperback
     direction -0.00286433 0.999996 -0.000382853   
     length 1.85768   
     axis 0 0 0   XYZ
    dof rx ry rz
    limits (-20.0 45.0)
           (-30.0 30.0)
           (-30.0 30.0)
  end
  begin
     id 13 
     name thorax
     direction 0.00167534 0.996793 0.0800069   
     length 1.92   
     axis 0 0 0   XYZ
    dof rx ry rz
    limits (-20.0 45.0)
           (-30.0 30.0)
           (-30.0 30.0)
  end
  begin
     id 14 
     name lowerneck
     direction -0.0672491 0.995415 0.068018   
     length 1.58923   
     axis 0 0 0   XYZ
    dof rx ry rz
    limits (-20.0 45.0)
           (-30.0 30.0)
           (-30.0 30.0)
  end
  begin
     id 15 
     name upperneck
     direction 0.0958019 0.982476 -0.159884   
     length 1.60189   
     axis 0 0 0   XYZ
    dof rx ry rz
    limits (-20.0 45.0)
           (-30.0 30.0)
           (-30.0 30.0)
  end
  begin
     id 16
     name head
     direction 0.032989 0.997338 -0.0650226  
     length 1.61681  
     axis 0 0 0   XYZ
    dof rx ry rz
    limits (-20.0 45.0)
           (-30.0 30.0)
           (-30.0 30.0)
  end
  begin
     id 17 
     name lclavicle
     direction 0.954279 0.298875 -0.00496069  
     length 2.99449  
     axis 0 0 0   XYZ
    dof ry rz
    limits (-20.0 10.0)
           (0.0 20.0)
  end
  begin
     id 18 
     name lhumerus
     direction 1 -4.48985e-011 -4.2057e-027   
     length 4.79185   
     axis 180 -30 -90   XYZ
    dof rx ry rz
    limits (-60.0 90.0)
           (-90.0 90.0)
           (-90.0 90.0)
  end
  begin
     id 19
     name lradius
     direction 1 -4.48945e-011 1.15441e-028   
     length 2.65553   
     axis 180 -30 -90   XYZ
    dof rx
    limits (-10.0 170.0)
  end
  begin
     id 20
     name lwrist
     direction 1 -4.4899e-011 4.8894e-028   
     length 1.32777   
     axis -2.56392e-016 90 90   XYZ
    dof ry
    limits (-180.0 0.0)
 end
  begin
     id 21 
     name lhand
     direction 1 -4.48908e-011 9.7788e-028   
     length 0.743904   
     axis -6.23971e-016 90 90   XYZ
    dof rx rz
    limits (-90.0 90.0)
           (-45.0 45.0)
  end
  begin
     id 22 
     name lfingers
     direction 1 -4.49068e-011 1.95576e-027   
     length 0.599754   
     axis -1.24794e-015 90 90   XYZ
    dof rx
    limits (0.0 90.0)
  end
  begin
     id 23
     name lthumb
     direction 0.707107 -6.34883e-011 0.707107   
     length 0.861131   
     axis -90 45 2.85299e-015   XYZ
    dof rx rz
    limits (-45.0 45.0)
           (-45.0 45.0)
  end
  begin
     id 24 
     name rclavicle
     direction -0.957921 0.286916 0.00811568   
     length 3.06817  
     axis 0 0 0   XYZ 
    dof ry rz
    limits (-10.0 20.0)
           (-20.0 0.0)
  end
  begin
     id 25 
     name rhumerus
     direction -1 -4.48971e-011 -3.07942e-027  
     length 4.77254   
     axis 180 30 90   XYZ
    dof rx ry rz
    limits (-90.0 60.0)
           (-90.0 90.0)
           (-90.0 90.0)
  end
  begin
     id 26 
     name rradius
     direction -1 -4.48957e-011 -9.6815e-028   
     length 2.75995   
     axis 180 30 90   XYZ
    dof rx
    limits (-10.0 170.0)
  end
  begin
     id 27 
     name rwrist
     direction -1 -4.48979e-011 4.8894e-028   
     length 1.37997   
     axis -2.56392e-016 -90 -90   XYZ
    dof ry
    limits (-180.0 0.0)
  end
  begin
     id 28
     name rhand
     direction -1 -4.48906e-011 9.7788e-028   
     length 0.701619   
     axis -6.23971e-016 -90 -90   XYZ
    dof rx rz
    limits (-90.0 90.0)
           (-45.0 45.0)
  end
  begin
     id 29
     name rfingers
     direction -1 -4.49018e-011 1.95576e-027   
     length 0.565663   
     axis -1.24794e-015 -90 -90   XYZ
    dof rx
    limits (0.0 90.0)
  end
  begin
     id 30
     name rthumb
     direction -0.707107 -6.34881e-011 0.707107   
     length 0.812183   
     axis -90 -45 -2.85299e-015   XYZ
    dof rx rz
    limits (-45.0 45.0)
           (-45.0 45.0)
  end
:hierarchy
  begin
    root lhipjoint rhipjoint lowerback
    lhipjoint lfemur
    lfemur ltibia
    ltibia lfoot
    lfoot ltoes
    rhipjoint rfemur
    rfemur rtibia
    rtibia rfoot
    rfoot rtoes
    lowerback upperback
    upperback thorax
    thorax lowerneck lclavicle rclavicle
    lowerneck upperneck
    upperneck head
    lclavicle lhumerus
    lhumerus lradius
    lradius lwrist
    lwrist lhand lthumb
    lhand lfingers
    rclavicle rhumerus
    rhumerus rradius
    rradius rwrist
    rwrist rhand rthumb
    rhand rfingers
  end

#!OML:ASF F:\VICON\USERDATA\INSTALL\rory3\rory3.ASF
:FULLY-SPECIFIED
:DEGREES
549
root -0.301484 15.6547 -1.01211 -3.79746 10.7725 -2.31578
lowerback 20.15 1.88381 -6.27575
upperback 7.71289 1.15933 -3.92486
thorax -2.92556 0.562851 -0.888582
lowerneck 0.044781 -11.017 -17.9066
upperneck -7.34693 -14.3921 22.6178
head 1.00094 -7.31596 9.45123
rclavicle 2.14687e-014 3.18055e-015
rhumerus -8.26073 25.5467 -36.6285
rradius 120.227
rwrist -26.4459
rhand 9.5112 5.694
rfingers 7.12502
rthumb 34.6626 -20.9402
lclavicle 2.14687e-014 3.18055e-015
lhumerus -29.6447 -6.027 66.5338
lradius 105.996
lwrist -1.98021
lhand -5.33758 13.0906
lfingers 7.12502
lthumb 20.469 42.0317
rfemur -9.25389 4.70396 21.4361
rtibia 34.6738
rfoot -17.1609 -17.9635
rtoes -15.2598
lfemur -12.7952 -15.9253 -12.514
ltibia 31.8621
lfoot -12.2555 2.68351
ltoes -19.109
550
root -0.301273 15.6541 -1.01294 -3.79287 10.6738 -2.27618
lowerback 20.1392 1.85888 -6.3169
upperback 7.67975 1.11612 -3.94594
thorax -2.95461 0.541815 -0.878552
lowerneck 0.039739 -10.9601 -17.819
upperneck -7.27996 -14.3194 22.5303
head 0.990544 -7.27846 9.41465
rclavicle 1.27222e-014 3.02153e-014
rhumerus -8.30817 25.4218 -36.6945
rradius 120.338
rwrist -26.4669
rhand 9.46028 5.69808
rfingers 7.12502
rthumb 34.6143 -20.9472
lclavicle 1.27222e-014 3.02153e-014
lhumerus -29.7614 -5.93779 66.5466
lradius 105.896
lwrist -1.91255
lhand -5.37398 13.3492
lfingers 7.12502
lthumb 20.4341 42.294
rfemur -9.24983 4.79212 21.3976
rtibia 34.6568
rfoot -17.1842 -17.9127
rtoes -15.0326
lfemur -12.7466 -15.8474 -12.5562
ltibia 31.8214
lfoot -12.2632 2.70682
ltoes -19.1788
551
root -0.301296 15.6533 -1.01367 -3.77838 10.5745 -2.20676
lowerback 20.1143 1.83641 -6.38986
upperback 7.64952 1.07171 -3.96823
thorax -2.97333 0.519567 -0.851273
lowerneck 0.028085 -10.8985 -17.7772
upperneck -7.17074 -14.2455 22.4254
head 0.994723 -7.23787 9.37806
rclavicle 3.10104e-014 -4.45278e-014
rhumerus -8.37279 25.2258 -36.8258
rradius 120.354
rwrist -26.5428
rhand 9.58353 6.0381
rfingers 7.12502
rthumb 34.7312 -20.5803
lclavicle 3.10104e-014 -4.45278e-014
lhumerus -29.9441 -6.10774 66.65
lradius 105.97
lwrist -1.3766
lhand -6.45464 13.7048
lfingers 7.12502
lthumb 19.3953 42.7575
rfemur -9.25272 4.89341 21.3337
rtibia 34.6532
rfoot -17.2439 -17.8565
rtoes -14.6299
lfemur -12.706 -15.7674 -12.6251
ltibia 31.776
lfoot -12.284 2.75025
ltoes -19.0577
552
root -0.300179 15.6547 -1.01328 -3.76456 10.4679 -2.17291
lowerback 20.0765 1.81612 -6.40163
upperback 7.60091 1.04125 -3.99108
thorax -3.00537 0.505458 -0.862
lowerneck 0.0740182 -10.8312 -17.6835
upperneck -7.0593 -14.1712 22.2855
head 0.982602 -7.20067 9.32547
rclavicle -2.14687e-014 -1.43125e-014
rhumerus -8.5228 25.0863 -36.891
rradius 120.4
rwrist -26.6766
rhand 9.69662 6.32808
rfingers 7.12502
rthumb 34.8385 -20.2655
lclavicle -2.14687e-014 -1.43125e-014
lhumerus -30.1136 -6.2164 66.6883
lradius 106.047
lwrist -1.03917
lhand -7.21628 13.9538
lfingers 7.12502
lthumb 18.6628 43.0785
rfemur -9.26751 4.98632 21.3041
rtibia 34.6466
rfoot -17.2075 -17.8414
rtoes -14.6636
lfemur -12.6782 -15.6839 -12.6583
ltibia 31.7458
lfoot -12.2564 2.75997
ltoes -19.086
553
root -0.298692 15.6552 -1.012 -3.75869 10.3481 -2.13156
lowerback 20.0175 1.80449 -6.42748
upperback 7.57848 1.02416 -3.99885
thorax -2.99891 0.496518 -0.850726
lowerneck 0.0975297 -10.7625 -17.6525
upperneck -6.99423 -14.0868 22.19
head 0.968446 -7.1574 9.29835
rclavicle -6.36111e-015 -3.18055e-015
rhumerus -8.63133 24.977 -36.8246
rradius 120.578
rwrist -26.8439
rhand 9.57837 6.33077
rfingers 7.12502
rthumb 34.7263 -20.2888
lclavicle -6.36111e-015 -3.18055e-015
lhumerus -30.2066 -6.15232 66.6636
lradius 106.103
lwrist -0.992463
lhand -7.30356 14.0477
lfingers 7.12502
lthumb 18.5789 43.1805
rfemur -9.2683 5.1085 21.2628
rtibia 34.6369
rfoot -17.1313 -17.868
rtoes -15.0548
lfemur -12.6114 -15.6156 -12.7109
ltibia 31.7111
lfoot -12.2467 2.79196
ltoes -18.9432
554
root -0.297331 15.6563 -1.01015 -3.79249 10.2396 -2.16948
lowerback 20.0037 1.77693 -6.33548
upperback 7.5585 1.0035 -4.02205
thorax -3.01202 0.488025 -0.922458
lowerneck 0.107946 -10.7387 -17.5506
upperneck -6.94515 -14.0597 22.0783
head 0.956687 -7.14355 9.24798
rclavicle -1.35174e-014 5.88403e-014
rhumerus -8.70397 24.841 -36.7933
rradius 120.801
rwrist -27.0338
rhand 9.53065 6.13195
rfingers 7.12502
rthumb 34.681 -20.498
lclavicle -1.35174e-014 5.88403e-014
lhumerus -30.2643 -6.24999 66.6178
lradius 106.321
lwrist -0.760903
lhand -7.44531 14.4387
lfingers 7.12502
lthumb 18.4425 43.5845
rfemur -9.22862 5.19804 21.3183
rtibia 34.6117
rfoot -17.0688 -17.9057
rtoes -15.4366
lfemur -12.5299 -15.5804 -12.682
ltibia 31.6855
lfoot -12.2527 2.83335
ltoes -18.8739
555
root -0.295233 15.6568 -1.00802 -3.80901 10.124 -2.17227
lowerback 19.9487 1.77248 -6.29768
upperback 7.54594 1.00742 -4.04259
thorax -2.99694 0.490253 -0.965245
lowerneck 0.0587589 -10.7364 -17.4893
upperneck -6.80397 -14.0663 22.0281
head 0.996582 -7.14238 9.21367
rclavicle 4.69132e-014 -1.11319e-014
rhumerus -8.68285 24.5721 -36.7339
rradius 120.919
rwrist -27.0125
rhand 9.71064 6.06483
rfingers 7.12502
rthumb 34.8518 -20.5257
lclavicle 4.69132e-014 -1.11319e-014
lhumerus -30.2942 -6.24384 66.5954
lradius 106.569
lwrist -0.702117
lhand -7.17382 14.7598
lfingers 7.12502
lthumb 18.7036 43.8806
rfemur -9.2086 5.28508 21.3256
rtibia 34.59
rfoot -17.0413 -17.8706
rtoes -15.5728
lfemur -12.4604 -15.5248 -12.69
ltibia 31.6702
lfoot -12.2689 2.92458
ltoes -18.7486
556
root -0.293389 15.6576 -1.00749 -3.82455 10.0128 -2.17307
lowerback 19.8825 1.76345 -6.292
upperback 7.53084 1.00175 -4.02919
thorax -2.97944 0.486779 -0.951262
lowerneck 0.0202512 -10.7018 -17.5277
upperneck -6.65275 -14.0326 22.028
head 1.04179 -7.12041 9.21632
rclavicle -3.26007e-014 2.8625e-014
rhumerus -8.66715 24.3213 -36.6523
rradius 120.976
rwrist -26.9075
rhand 10.0195 6.2289
rfingers 7.12502
rthumb 35.1449 -20.2932
lclavicle -3.26007e-014 2.8625e-014
lhumerus -30.2917 -5.93686 66.582
lradius 106.43
lwrist -0.988599
lhand -6.80659 14.3748
lfingers 7.12502
lthumb 19.0568 43.4612
rfemur -9.20812 5.39074 21.3301
rtibia 34.5776
rfoot -16.9812 -17.8446
rtoes -15.4695
lfemur -12.4075 -15.4777 -12.6999
ltibia 31.681
lfoot -12.3508 3.03984
ltoes -19.0365
557
root -0.291785 15.6566 -1.00595 -3.82024 9.93034 -2.13597
lowerback 19.7858 1.73388 -6.34526
upperback 7.51555 0.962104 -4.00418
thorax -2.94606 0.465326 -0.883472
lowerneck 0.0785424 -10.6386 -17.589
upperneck -6.6765 -13.9511 22.0065
head 1.01156 -7.08137 9.23243
rclavicle -4.05521e-014 1.27222e-014
rhumerus -8.70063 24.1977 -36.5665
rradius 121.092
rwrist -26.8792
rhand 10.0211 6.25883
rfingers 7.12502
rthumb 35.1464 -20.2629
lclavicle -4.05521e-014 1.27222e-014
lhumerus -30.3969 -5.83501 66.4807
lradius 106.321
lwrist -1.29157
lhand -6.80417 13.7312
lfingers 7.12502
lthumb 19.0592 42.8174
rfemur -9.20965 5.47311 21.2917
rtibia 34.5582
rfoot -16.9533 -17.8378
rtoes -15.3284
lfemur -12.3832 -15.4574 -12.7442
ltibia 31.716
lfoot -12.4228 3.09206
ltoes -19.0578
